<svg xmlns="http://www.w3.org/2000/svg" width="24" height="24" viewBox="0 0 24 24" fill="none"><g clip-path="url(#clip0_981_10917)"><path d="M8.49164 11.3106L7.43164 15.5536L11.6737 14.4927L18.0376 8.12862L14.8557 4.94662L8.49164 11.3106Z" stroke="#07142B" stroke-width="1.5" stroke-linecap="round" stroke-linejoin="round"/><path d="M21.751 4.41665L22.811 5.47666C23.0925 5.75799 23.2507 6.13966 23.2507 6.53765C23.2507 6.93564 23.0925 7.31732 22.811 7.59865L19.5 10.9087M21.751 4.41665L18.0381 8.12864M21.751 4.41665C22.3366 3.8309 22.3366 2.88138 21.751 2.29564L20.6901 1.23464C20.1043 0.649062 19.1547 0.649062 18.5691 1.23464L14.856 4.94564M18.75 14.2956V21.7956C18.75 22.624 18.0784 23.2956 17.25 23.2956H2.25C1.42157 23.2956 0.75 22.624 0.75 21.7956V6.79561C0.75 5.96718 1.42157 5.29561 2.25 5.29561H9.75" stroke="#07142B" stroke-width="1.5" stroke-linecap="round" stroke-linejoin="round"/></g><defs><clipPath id="clip0_981_10917"><rect width="24" height="24" fill="white"/></clipPath></defs></svg>